<?xml version="1.0" encoding="UTF-8" standalone="no"?>
<svg
   width="64"
   height="64"
   version="1"
   id="svg32"
   sodipodi:docname="mounzil.svg"
   inkscape:version="1.2.2 (b0a8486541, 2022-12-01)"
   xmlns:inkscape="http://www.inkscape.org/namespaces/inkscape"
   xmlns:sodipodi="http://sodipodi.sourceforge.net/DTD/sodipodi-0.dtd"
   xmlns="http://www.w3.org/2000/svg"
   xmlns:svg="http://www.w3.org/2000/svg">
  <sodipodi:namedview
     id="namedview9"
     pagecolor="#ffffff"
     bordercolor="#000000"
     borderopacity="0.25"
     inkscape:showpageshadow="2"
     inkscape:pageopacity="0.0"
     inkscape:pagecheckerboard="0"
     inkscape:deskcolor="#d1d1d1"
     showgrid="false"
     inkscape:zoom="23.041667"
     inkscape:cx="27.775769"
     inkscape:cy="25.106691"
     inkscape:window-width="1366"
     inkscape:window-height="688"
     inkscape:window-x="0"
     inkscape:window-y="0"
     inkscape:window-maximized="1"
     inkscape:current-layer="svg32" />
  <defs
     id="defs36" />
  <path
     id="path320"
     style="display:inline;fill:#008000;stroke-width:1.2332"
     d="M 33.809574,0.5 A 33.309574,33.456725 0 0 0 0.50000005,33.956725 33.309574,33.456725 0 0 0 18.349921,63.5 27.601415,33.60526 0 0 1 10.627324,40.300047 27.601415,33.60526 0 0 1 14.323567,23.658811 25.109975,24.560834 0 0 1 39.187681,2.4434161 25.109975,24.560834 0 0 1 50.980002,5.3210228 33.309574,33.456725 0 0 0 33.809574,0.5 Z m 26.45923,13.170683 a 25.109975,24.560834 0 0 1 0.103593,0.159732 24.798628,24.20172 0 0 1 0.08672,0.06292 33.309574,33.456725 0 0 0 -0.19037,-0.222652 z" />
  <path
     id="path326"
     style="display:inline;fill:#00a800;fill-opacity:1;stroke-width:1.64817"
     d="M 38.956365,3.2335149 A 24.542107,24.012915 0 0 0 38.178882,3.2788453 13.34275,20.366232 0 0 1 45.886558,21.739436 13.34275,20.366232 0 0 1 32.544501,42.104381 13.34275,20.366232 0 0 1 19.20244,21.739447 13.34275,20.366232 0 0 1 21.470912,10.459059 24.542107,24.012915 0 0 0 14.415936,27.245236 24.542107,24.012915 0 0 0 38.956365,51.260193 24.542107,24.012915 0 0 0 63.5,27.245233 24.542107,24.012915 0 0 0 38.956365,3.2335149 Z" />
  <path
     id="path1913"
     style="fill:#008000;fill-opacity:1;stroke-width:0.798046"
     d="m 44.814849,10.870685 a 5.1946304,17.609486 10.904735 0 0 -0.914146,0.202676 5.5291569,15.790329 3.1495073 0 1 1.785814,13.362371 5.5291569,15.790329 3.1495073 0 1 -0.472602,4.391794 4.5845538,10.413695 20.37829 0 1 -0.123452,6.880616 5.1946304,17.609486 10.904735 0 0 1.767211,-7.10463 5.1946304,17.609486 10.904735 0 0 -2.042816,-17.732822 z" />
  <path
     id="path1715"
     style="fill:#b3b3b3;fill-opacity:1;stroke-width:0.638749"
     d="m 22.856054,35.771552 a 15.630899,11.977547 89.431892 0 0 0.0493,0.174785 15.630899,11.977547 89.431892 0 0 15.873592,7.827774 15.630899,11.977547 89.431892 0 0 6.725652,-17.306828 13.0579,16.330242 6.3911924 0 1 -7.763067,12.558389 13.0579,16.330242 6.3911924 0 1 -14.885469,-3.2541 z" />
  <ellipse
     style="display:inline;fill:#00a800;fill-opacity:1;stroke-width:1.2364"
     id="path1064"
     cx="38.15612"
     cy="25.311348"
     rx="5.8883743"
     ry="5.8333497" />
</svg>
