<?xml version="1.0" encoding="UTF-8" standalone="no"?>
<svg
   width="24"
   height="24"
   version="1"
   id="svg32"
   sodipodi:docname="mounzil-tray.svg"
   inkscape:version="1.2.2 (b0a8486541, 2022-12-01)"
   inkscape:export-filename="mounzil.svg"
   inkscape:export-xdpi="36"
   inkscape:export-ydpi="36"
   xmlns:inkscape="http://www.inkscape.org/namespaces/inkscape"
   xmlns:sodipodi="http://sodipodi.sourceforge.net/DTD/sodipodi-0.dtd"
   xmlns="http://www.w3.org/2000/svg"
   xmlns:svg="http://www.w3.org/2000/svg">
  <defs
     id="defs36" />
  <sodipodi:namedview
     id="namedview34"
     pagecolor="#ffffff"
     bordercolor="#000000"
     borderopacity="0.25"
     inkscape:showpageshadow="2"
     inkscape:pageopacity="0.0"
     inkscape:pagecheckerboard="0"
     inkscape:deskcolor="#d1d1d1"
     showgrid="false"
     inkscape:zoom="13.744388"
     inkscape:cx="8.0032665"
     inkscape:cy="9.6402983"
     inkscape:window-width="1366"
     inkscape:window-height="688"
     inkscape:window-x="0"
     inkscape:window-y="0"
     inkscape:window-maximized="1"
     inkscape:current-layer="svg32" />
  <path
     id="path320"
     style="display:inline;fill:#008000;stroke-width:0.450213"
     d="M 12.660638,0.5 A 12.160638,12.21436 0 0 0 0.50000002,12.71436 12.160638,12.21436 0 0 0 7.0166379,23.5 10.076707,12.268587 0 0 1 4.1972768,15.030176 10.076707,12.268587 0 0 1 5.5466993,8.9548038 9.1671337,8.9666538 0 0 1 14.624074,1.2095011 9.1671337,8.9666538 0 0 1 18.929207,2.2600558 12.160638,12.21436 0 0 0 12.660638,0.5 Z m 9.659719,4.8083445 a 9.1671337,8.9666538 0 0 1 0.03782,0.058315 9.0534673,8.8355485 0 0 1 0.03166,0.022971 12.160638,12.21436 0 0 0 -0.0695,-0.081286 z" />
  <path
     id="path326"
     style="display:inline;fill:#00a800;fill-opacity:1;stroke-width:0.601714"
     d="m 14.539625,1.4979499 a 8.9598168,8.7666197 0 0 0 -0.283843,0.01655 4.8711627,7.4352911 0 0 1 2.813914,6.7395798 4.8711627,7.4352911 0 0 1 -4.87091,7.4348213 A 4.8711627,7.4352911 0 0 1 7.3278749,8.2540839 4.8711627,7.4352911 0 0 1 8.1560474,4.1358467 8.9598168,8.7666197 0 0 0 5.5804211,10.264134 8.9598168,8.7666197 0 0 0 14.539625,19.031499 8.9598168,8.7666197 0 0 0 23.5,10.264133 8.9598168,8.7666197 0 0 0 14.539625,1.4979499 Z" />
  <path
     id="path1913"
     style="fill:#008000;fill-opacity:1;stroke-width:0.29135"
     d="m 16.678437,4.286123 a 1.8964524,6.4288602 10.904735 0 0 -0.333736,0.073993 2.0185811,5.7647234 3.1495073 0 1 0.651964,4.8783259 2.0185811,5.7647234 3.1495073 0 1 -0.172537,1.6033531 1.673726,3.8018251 20.37829 0 1 -0.04507,2.511971 1.8964524,6.4288602 10.904735 0 0 0.645172,-2.593754 1.8964524,6.4288602 10.904735 0 0 -0.74579,-6.473887 z" />
  <path
     id="path1715"
     style="fill:#b3b3b3;fill-opacity:1;stroke-width:0.233194"
     d="m 8.661734,13.376916 a 5.7065188,4.3727553 89.431892 0 0 0.017998,0.06381 5.7065188,4.3727553 89.431892 0 0 5.795121,2.857759 5.7065188,4.3727553 89.431892 0 0 2.455397,-6.3183659 4.7671698,5.9618342 6.3911924 0 1 -2.834136,4.5848089 4.7671698,5.9618342 6.3911924 0 1 -5.4343776,-1.188005 z" />
  <ellipse
     style="display:inline;fill:#00a800;fill-opacity:1;stroke-width:0.451387"
     id="path1064"
     cx="14.247474"
     cy="9.5581112"
     rx="2.149724"
     ry="2.1296356" />
</svg>
