<?xml version="1.0" encoding="UTF-8" standalone="no"?>
<svg
   viewBox="0 0 16 16"
   version="1.1"
   id="svg6"
   sodipodi:docname="video_finder.svg"
   width="16"
   height="16"
   inkscape:version="1.2.2 (b0a8486541, 2022-12-01)"
   xmlns:inkscape="http://www.inkscape.org/namespaces/inkscape"
   xmlns:sodipodi="http://sodipodi.sourceforge.net/DTD/sodipodi-0.dtd"
   xmlns="http://www.w3.org/2000/svg"
   xmlns:svg="http://www.w3.org/2000/svg">
  <sodipodi:namedview
     id="namedview8"
     pagecolor="#ffffff"
     bordercolor="#000000"
     borderopacity="0.25"
     inkscape:showpageshadow="2"
     inkscape:pageopacity="0.0"
     inkscape:pagecheckerboard="0"
     inkscape:deskcolor="#d1d1d1"
     showgrid="false"
     inkscape:zoom="25.409091"
     inkscape:cx="4.1127013"
     inkscape:cy="7.9892665"
     inkscape:window-width="1366"
     inkscape:window-height="709"
     inkscape:window-x="0"
     inkscape:window-y="0"
     inkscape:window-maximized="1"
     inkscape:current-layer="svg6" />
  <defs
     id="defs3051">
    <style
       type="text/css"
       id="current-color-scheme">
      .ColorScheme-Text {
        color:#4d4d4d;
      }
      </style>
  </defs>
  <path
     style="fill:#f2f2f2;fill-opacity:1;stroke:none"
     d="M 0,0 V 16 H 16 V 0 Z M 3,1 H 13 V 6.9003906 H 3 Z M 1,2 H 2 V 3 H 1 Z m 13,0 h 1 V 3 H 14 Z M 1,4 H 2 V 5 H 1 Z m 13,0 h 1 V 5 H 14 Z M 1,6 H 2 V 7 H 1 Z m 13,0.099609 h 1 v 1 H 14 Z M 1,9 h 1 v 1 H 1 Z m 2,0 h 10 v 6 H 3 Z m 11,0 h 1 v 1 H 14 Z M 1,11 h 1 v 1 H 1 Z m 13,0 h 1 v 1 H 14 Z M 1,13 h 1 v 1 H 1 Z m 13,0 h 1 v 1 h -1 z"
     class="ColorScheme-Text"
     id="path4" />
</svg>
